<?xml version="1.0" encoding="utf-8"?>
<!-- Generator: Adobe Illustrator 19.1.0, SVG Export Plug-In . SVG Version: 6.00 Build 0)  -->
<svg version="1.1" id="Layer_1" xmlns="http://www.w3.org/2000/svg" xmlns:xlink="http://www.w3.org/1999/xlink" x="0px" y="0px"
	 viewBox="0 0 144.8 175.7" style="enable-background:new 0 0 144.8 175.7;" xml:space="preserve">
<g>
	<path d="M69.8,93.1c0-0.3,0.1-1.4,0.2-3c0.1-1,0.1-2.2,0.2-3.6c0-0.4-0.1-0.7-0.1-1.1c0.7-10.7,1.5-29.1,1.5-30.8
		c0-2.4,0-13.6,0-17.3c0-1.2,0.1-0.6,0-1.7c-0.1-0.8,0-3.3-0.2-4c-0.1-0.8-0.3,0.4-0.4-0.1c-0.1-0.2-0.1-4-0.3-5.1
		c-0.3-1.8-1.8-1.9-1.9-2.5c-0.1-0.3-0.6,0.9-0.7,0.6c-0.3-0.9-0.6-0.2-1.3-0.4c-0.3-0.1-0.7,0.2-1,0.1c-0.3-0.1-0.6-0.7-0.8-0.6
		c-1.2,0-0.7,0.4-1,0.3c-1.5-0.6-0.9-0.4-1.2-0.2c-0.2,0.2-0.2,0.6-0.4,0.7c-0.4,0.1-0.4,0.2-0.9,1.1c-0.2,0.4-0.5-0.3-0.6,0.8
		c0,0.3-0.5,3.8-0.6,4.1c0,0.2-0.1,4.8-0.1,5.6c-0.1,4,0,8.1,0,14.1c0,2.8,0,4.6,0,4.6c0,0.9,0,2.7-0.1,5.1c0,0.8-0.1,1.7-0.1,2.6
		c-0.3,9.8-0.7,11.4-0.6,13c0,0.3-0.1,8.2-0.1,9.5c0,1.2-0.3,7.7-0.2,8.7c0.1,0.7-0.1,1.9-0.2,3c-0.1,1.4,0.2,0.4,0.3,0.9
		c0,0.2,0.1-0.1,0.1-0.3c0,0.2,0,0.6,0,1.2c0,0.6-0.3,1.7-0.3,3.6c0,2.2,0.6,0.3,0.6,1c0.1,0.7,0.6,7.3,0.7,8.7c0,0.8-0.3,1.2-0.3,2
		c0,0.8,0.2,2.7,0.2,3.5c0,2.4,0,4.4,0.2,4.4c0.4,4.1,0,4.1,0.1,4.2c0.1,0.3,0.4,0.4,0.5,0.6c0.2,0.2,0,0.8,0.2,0.9
		c0.3,0.1,0.5-2.3,0.8-2.5c0.3-0.2,0.5-1.4,0.8-1.8c0.3-0.4,0.4-2.1,0.5-2.5c0.1-0.2,0.2,0,0.3-0.3c0.2-0.8,0.5-1.4,0.8-2.6
		c0.1-0.3-0.1-1.5,0-1.8c0.1-0.4,0.4-0.8,0.5-1.3c0.1-0.7,0.2-0.5,0.3-1.2c0.1-0.6,0.1-1.3,0.2-1.9c0-0.6,0.1-1.1,0.2-1.7
		c0.2-0.9,0.4,0,0.7-0.8c0.3-1.1,0.7-2.1,0.9-2.9c0.2-0.7,0.3-1.3,0.3-1.8c0-0.3,0.1-0.9,0.2-1.6c0.1-0.5,0.2-1.1,0.3-1.7
		c0.3-1.7,0.7-1.6,1.1-3.4C69.4,95.5,69.7,93.8,69.8,93.1z"/>
	<path d="M86.7,165.6c-0.2-0.7-0.4-1.6-0.9-2.4c-0.8-1.4-1.7-2.7-4.1-3.8c-5-2.3-7.4-2.1-7.4-4.9c0-1.3-0.2-1.2,1.2-2.4
		c0.8-0.6,2-0.5,2.9-0.4c0.3,0,0.6,0.1,0.9,0.1c0.8,0.2,1.6,0.5,2.4,0.8c0.3,0.1,0.5,0.3,0.8,0.4c0.1,0.1,0.3,0.2,0.4,0.2
		c0.1,0.1,0.3,0.2,0.4,0.2c0-0.2-0.2-0.4-0.1-0.6c0-0.1,0.1-0.1,0.1-0.2c0-0.1,0-0.1,0-0.2c0-0.1,0.1-0.1,0.1-0.2
		c0-0.1-0.1-0.2-0.2-0.3c0,0,0.3-0.3,0.2-0.4c0-0.1-0.1-0.2-0.1-0.3c-0.2-0.2-0.4-0.4-0.6-0.5c-0.1,0-0.1-0.1-0.2-0.1
		c0.2,0.1,0.3,0.2,0.5,0.3c0.1,0.1,0.1-0.1,0.1-0.2c0-0.1-0.1-0.2,0-0.3c0-0.1,0.1-0.3,0.1-0.4c0-0.1-0.1-0.3-0.1-0.4
		c0-0.1,0.2-0.2,0.3-0.2c-0.1-0.2-0.3-0.3-0.5-0.4c-0.1,0-0.2-0.1-0.2-0.2c-0.1-0.1-0.1-0.3-0.2-0.3c0,0,0.2,0-1.5-0.7
		c-0.4-0.2,0-0.2-0.4-0.3c-1.2-0.3-2.1-0.5-3.3-0.4c-0.8,0-2.4,0.4-3.5,0.7c-0.9,0.2-1,0.4-1.7,0.8c-1.3,0.8-2.5,3-2.9,4
		c-0.4,1.2-0.4,1.9,0,3.7c0.2,1,0.8,2.2,2.5,3.5c0.6,0.5,1.4,1.3,2.4,1.7c1.5,0.7,2.6,1.1,3.4,1.5c1.1,0.5,2.1,0.9,2.1,0.9
		s0.1,0.2,0.7,0.8c0.5,0.6,0.9,1.9,0.9,2.8c0,2-1.5,2.4-2.1,2.7c-0.9,0.3-1.3,0.6-2.7,0.3c-1-0.2-3-0.6-4-1.2c0,0-0.9-0.6-1.3-0.8
		c-0.3-0.2-0.7-0.1-0.7-0.1s-0.2,0-0.5-0.1c-0.3-0.2,0,0.2-0.1,0.3c-0.1,0,0,0.1-0.1,0.2c-0.1,0.1-0.1,0.1,0,0.2c0,0.1,0,0.2,0,0.2
		c0,0,0-0.1,0,0.1c0,0.1,0.1,0.1,0.1,0.3c0,0.1-0.1,0.2-0.2,0.2c-0.1,0-0.3,0.1-0.2,0.2c0,0.1,0,0-0.1,0c-0.1,0,0,0.1,0.1,0.2
		c0.1,0.1-0.3,0.1-0.2,0.4c0.1,0.2,0.2,0.3,0.2,0.4c0,0.1-0.2,0-0.1,0.2c0.1,0.2-0.1,0.1,0,0.2c0.1,0.1,0.1,0.3,0.3,0.3
		c0.2,0.1,0.2,0.1,0.2,0.2c0,0.1-0.1,0.1-0.1,0.2c0,0,0,0.2,0,0.2c0,0.1,0.1,0.2,0.2,0.3c0.2,0.1,0.2,0.1,0.1,0.2
		c0,0.1,0,0.1,0.1,0.2c0.1,0.1,0,0.1,0.1,0.1c0.1,0.1,0.2,0.1,0.2,0.1c0.1,0.1,0.2,0,0.2,0.2c0.1,0.1,0.3,0.2,0.5,0.5
		c0.2,0.4-0.6,0.1,0.3,0.6c0.2,0.1,1.1,0.5,2.5,0.7c0.7,0.1,2.8,0.3,3.7,0.3c2.3,0,2.9-0.4,4.4-1.1c0.8-0.4,1.4-0.8,2.1-1.4
		c0.9-0.9,1.5-1.9,1.9-2.8c0.4-1.1,0.3-2.3,0.3-3.2C86.6,166.4,86.8,166.1,86.7,165.6z"/>
	<path d="M93.5,161.8l-0.1-3l-0.4-5l-0.1-3.1l0-0.3c0,0-0.1-0.3-0.1-0.3c-0.1,0-0.1-0.1-0.1-0.2c0-0.1-0.1-0.2-0.2-0.2
		c0,0-0.1-0.1-0.1-0.1c0,0-0.1,0.1-0.1,0.1c0,0-0.1,0-0.1,0c-0.1,0-0.2-0.4-0.3-0.4c-0.2-0.1-0.2-0.5-0.3-0.4
		c-0.1,0.1-0.2,0-0.3-0.1c-0.1-0.1-0.2-0.1-0.3-0.1c-0.1-0.1-0.2-0.3-0.3-0.5c-0.1-0.1-0.2-0.2-0.3-0.2c-0.1,0-0.2,0-0.4,0
		c-0.1,0-0.2,0-0.3,0.1c-0.1-0.1-0.1-0.2-0.2-0.3c-0.1-0.1-0.3-0.1-0.4-0.2c-0.1-0.1-0.2-0.2-0.2-0.3c0-0.2-0.3,0-0.4-0.3
		c0,0-0.1,0-0.1,0.1c0,0.1,0,0.3-0.4,0.8c-0.1,0.1-0.1,0.2-0.1,0.4c0,0.1-0.2,0.4-0.2,0.4c-0.1,0.1-0.1,0.3-0.1,0.5
		c-0.1,0.2-0.1,0.1,0,0.4c0,0.3,0.1,0.4,0,0.7c-0.1,0.2-0.1,0.3-0.1,0.6c0,0.3,0.5,4.6,0.6,5.7c0,1.1,0.2,6.8,0.2,7.3
		c0,0.5,0.4,7.8,0.4,8.1c0,0.3,0,1.2,0,1.3c0,0.1,0,0.6,0.2,1c0.2,0.4,0.1,0.6,0.3,0.5c0.2-0.1,0.3,0.2,0.4,0.2
		c0.1,0,0.4,0.3,0.4,0.2c0.1-0.1,0.5,0.2,0.6,0.5c0,0.1,0.1,0.5,0.2,0c0.1-0.4,0.1-0.2,0.3-0.1c0.2,0.1,0.3-0.1,0.3-0.1
		s0.1-0.1,0.4,0c0.1,0,0.2,0,0.2,0s0.2-0.2,0.3,0c0.1,0.2,0.1,0,0.2-0.1c0-0.2,0.3-0.5,0.4-0.6c0.1,0-0.1-0.1,0.1-0.2
		c0.2-0.1,0.2-0.3,0.2-0.3s0.1-0.3,0.1-0.3c0.1,0,0.1-0.4,0-0.6c0-0.2,0-0.6,0-0.8c0-0.2,0.1-0.8,0.1-1c0-0.2,0-0.7,0-0.8
		c0-0.1,0-0.3,0.2-0.3c0.2-0.1,0.1-0.2,0.2-1c0-0.7-0.2-4-0.2-4L93.5,161.8z"/>
	<path d="M108.2,173.7c-0.1-0.1-2.2-3.4-2.2-3.4l-1.5-2.5l-2.3-3.7c0,0-1.4-2.5-1.8-3.2c-0.3-0.7,0.3-1.4,0.3-1.4l0.6-1.1l2.5-4.7
		l3.3-4.7l0.3-0.4c0,0,0.3-0.4,0.3-0.4c0,0,0.1-0.2,0-0.3c-0.1,0,0-0.2,0.1-0.2c0-0.1,0.1-0.2-0.1-0.2c-0.1,0-0.3,0.1-0.4-0.1
		c-0.2-0.2-0.3,0-0.4,0.1c-0.2,0.1-0.2,0.1-0.2,0.1s-0.1,0-0.2-0.1c-0.1,0-0.5,0.4-0.5,0.4l0-0.3c0,0-0.3,0-0.3,0
		c-0.1-0.1-0.5,0.3-0.6,0.4c-0.1,0.1-0.3,0.2-0.4,0.3c-0.1,0.1-0.3,0.1-0.3,0.1c0,0,0.2-0.3-0.2-0.2c-0.2,0.1-0.3-0.1-0.6,0.1
		c-0.1,0.1-0.2,0.1-0.4,0c-0.2-0.2-0.5-0.2-0.7,0c-0.2,0.2-0.7,0.1-0.7,0.1s-0.8,0.3-1,0.4c-0.2,0-0.3,0.3-0.4,0.3
		c-0.1,0-0.2,0.2-0.2,0.2l-1,2l-1.9,2.9c0,0-2.8,5.5-2.8,5.5c0,0,0,0.1-0.1,0.1c-0.1,0.1-0.1,0.3-0.2,0.4c0,0.1-0.1,0.1-0.1,0.2
		c0,0.1,0,0.1,0.1,0.2c0,0.1,0,0.1,0,0.2c0,0.2,0.5,1.2,0.5,1.2s1.1,1.5,1.2,1.6c0.1,0.1,0.1,0.3,0.2,0.4c0.1,0.1,0.9,1.4,1.1,1.5
		c0.1,0,0,0.2,0.1,0.3c0,0.1,0.6,0.7,0.8,1c0.3,0.3,1,1.5,1,1.5s0.7,1.2,1.1,1.5c0.3,0.3,0.8,1.3,0.9,1.3c0,0.1,0.5,0.6,0.6,0.8
		c0.2,0.1,0.3,0.4,0.3,0.4c0.4-0.1,1.1,0.9,1.2,0.9c0.1,0,0.3,0.2,0.3,0.2c0,0,0.3,0.1,0.4,0.1c0.1,0,0-0.1,0.2,0.1
		c0.2,0.2,0.4,0.2,0.7,0.4c0.1,0.1,0.2,0.1,0.1,0c0-0.1,0.1-0.1,0-0.2c-0.2-0.2,0.5,0.2,0.7,0.4c0.2,0.2,0.4,0.1,0.4,0.1
		s0.1-0.2,0.3,0c0.1,0.2,1,0.8,1.2,0.7c0.1,0,0.2,0,0.2-0.1c0-0.1,0.1,0,0.1-0.1c0-0.1,0-0.2,0-0.3c0,0,0.2,0.2,0.3,0.3
		c0.1,0.1,0.4,0.4,0.1-0.1c-0.2-0.4,0.3,0,0.1-0.3C108.7,174.4,108.3,173.9,108.2,173.7z"/>
	<path d="M54.8,169.1c-0.1-0.1,0-0.2-0.2-0.1c-0.2,0-0.8,0.3-0.8,0.3s0-0.2,0.1-0.8c0.1-0.6,0.4-4.9,0.4-5c0-0.1,0.2-2.2,0.2-2.6
		c0-0.3,0-0.9,0-1.1c0-0.2-0.2-0.6-0.3-0.4c0,0.1,0,0.1-0.1,0.3c0,0.1-0.1,0-0.2,0c-0.1,0-0.2,0.3-0.3,0.4c-0.1,0.1-0.2,0.2-0.3,0.2
		c-0.3,0.2-0.6-0.1-0.6,0.2c0,0.1-0.2,0.2-0.3,0.2c-0.2,0-0.4,0.1-0.6,0.1c-0.1,0-0.2-0.2-0.2-0.1c-0.1,0.1-0.3,0.1-0.3,0.4
		c0,0.3-0.1,0.3-0.1,0.4c-0.1,0-0.1,0-0.2,0s-0.3-0.2-0.6,0.2c-0.3,0.3-0.6,0.5-0.6,0.5s0,0.2-0.2,0.7c-0.2,0.5-0.3,0.1-0.3,0.5
		c0,0.3-0.1,2.2,0,3.3c0,1,0.1,1.6,0.1,1.7c0,0.1,0,0.1,0,0.6c0,0.4,0,1,0.1,1.2c0,0-0.4,0.1-0.5,0.1c-0.1,0-0.7,0-2.5,0.1
		c-0.8,0-2.3-0.2-3.5-0.7c-1.6-0.6-2.4-1.5-3-2.8c0,0-0.4-1.1-0.7-2.3c-0.2-0.8-0.4-1.7-0.4-2.7c0-0.9,0.1-1.9,0.2-2.8
		c0.1-1.2,0.4-2.1,0.9-3.3c0.5-1.2,1.3-2,2.3-2.6c1-0.6,1.7-1,2.7-1.1c0.8-0.1,1.3-0.1,2.2-0.1c0,0,1.1,0.2,1.8,0.4
		c0.4,0.1,0.4-0.3,0.8-0.2c0.8,0.2,1.2,0.3,1.2,0.2c0-0.2,0.7-0.1,0.8-0.2c0.1-0.1,0.2-0.2,0.4-0.2c0.1,0,0.2-0.4,0.1-0.5
		c-0.1-0.2,0-0.1-0.1-0.2c0-0.1,0.2-0.2,0.2-0.3c0-0.1-0.2-0.2-0.2-0.3c0-0.2-0.1-0.2,0.1-0.3c0.2-0.2,0.5-0.2,0.3-0.3
		c-0.1-0.1-0.2-0.1-0.3-0.2c0-0.1,0-0.2-0.1-0.2c-0.1,0-0.1,0,0-0.2c0-0.1,0.1-0.1,0-0.4c0,0-0.1-0.2,0-0.4c0,0,0.2-0.2-0.5-0.4
		c-0.6-0.2-1.3-0.7-1.5-0.7c-0.3,0-0.1-0.1-0.3-0.2c-0.3,0-0.6-0.1-1.4-0.2c-0.8-0.1-2.3-0.2-2.8-0.2c-0.3,0-1.4,0.1-2.7,0.4
		c-1,0.2-2.3,0.9-3.2,1.4c-2.4,1.3-3.9,2.7-5,4.9c-0.9,1.7-1.2,3.3-1.4,5.6c0,0.5-0.3,2.3-0.1,3.9c0.2,1.7,0.6,3.6,1.5,5.2
		c0.8,1.4,1.7,2.8,3,3.9c1.2,1,3,1.7,4.8,2.2c0.9,0.2,1.4,0.3,2.4,0.3c0,0,0.5,0,1.3,0c0.4,0,0.9-0.1,1.5-0.2
		c0.5-0.1,1.1-0.1,1.7-0.2l0.2,0c0,0,0,0.3,0,0.3c0,0.5,0.1,0.1,0.2,0.1c0.1,0,0-0.1,0,0.1c0,0.2,0.2,0.2,0.3,0.1
		c0.1-0.1,0.2,0,0.2,0.1c0.1,0.1,0.1,0.1,0.2,0.1c0.1,0,0.2,0,0.3,0c0.1,0.1,0.2,0,0.3,0c0.1,0,0.2-0.2,0.3,0
		c0.1,0.1,0.1,0.1,0.2,0.1c0.1,0,0.2,0.2,0.2,0.1c0-0.1,0-0.2,0-0.3c0-0.2,0.1-0.2,0.2-0.1c0.1,0.3,0.1-0.2,0.2-0.2
		c0.1,0,0.2-0.1,0.3-0.2c0.1-0.1,0.1-0.1,0.2-0.2c0.1,0,0.1,0.1,0.1,0.1s0.1,0.1,0.1,0.1c0-0.1,0.1-0.2,0.2-0.6
		c0.1-0.5,0-0.4,0.7-0.8c0.8-0.6,0.5-0.4,0.5-0.6c0-0.1,0.2-0.3,0.5-0.4c0,0,0.1,0,0.1-0.1c0-0.3-0.1-0.4,0.2-0.5
		c0.1,0,0.1,0,0.2-0.1c0.1-0.1,0.1-0.1,0.2-0.2c0.1-0.1,0.1-0.2,0.1-0.4c0-0.1,0.1-0.2,0.1-0.2c0-0.1-0.1,0-0.1,0
		c-0.1-0.1,0-0.1,0-0.2c0-0.1,0.1-0.4,0.1-0.5c0,0,0,0,0,0c0.1-0.2,0-0.3,0-0.3C55.4,169,55,169.4,54.8,169.1z"/>
	<path d="M23.2,160.4c0-0.1,0.3-0.1,0.3-0.2c0-0.1-0.2-0.2-0.3-0.2c-0.1-0.1-0.2-0.1-0.3-0.2c-0.2-0.2-0.4-0.3-0.2-0.4
		c0.2-0.1-0.2-0.1-0.3-0.4c-0.1-0.1-0.4-0.3-0.5-0.3c-0.4,0-0.2-0.1-0.5-0.1c-0.3,0-1.9-0.1-3.1-0.2c-1.2,0-2.3,0-2.5-0.1
		c0,0-0.1,0-0.1-0.2c0-0.2,0-2,0.1-2.1c0-0.2,0.1-0.2,0.1-0.6c0-0.3,0.1-1.5,0.1-1.7c-0.1-0.2,0-0.4,0-0.7c0-0.3,0-3.7-0.1-4.3
		c-0.1-0.6-0.2-1.1-0.6-1.3c-0.1-0.1-0.2-0.2-0.4-0.2c0,0-0.1,0-0.1,0c-0.2,0-0.4-0.2-0.6-0.1c-0.2,0.2-0.4,0.3-0.5,0.1
		c-0.1-0.2-0.2-0.2-0.3-0.2c-0.1,0.1-0.3-0.3-0.4-0.1c0,0.2-0.2,0.2-0.2,0.2c-0.1,0-0.2,0-0.2,0c0,0.1-0.1,0.1-0.2,0.1
		s-0.1,0-0.2,0.1c0,0-0.1,0.1-0.1,0.1c0,0-0.2,0.1-0.3,0c-0.1-0.1-0.1-0.1-0.2-0.1c0,0-0.1-0.1-0.2,0c-0.1,0.1-0.2,0.2-0.3,0.2
		c-0.1,0.1-0.3,0.2-0.3,0.3c-0.1,0.1-0.1,0.2-0.1,0.3c0,0.1,0,0.1-0.1,0.1c-0.2,0-0.2-0.2-0.2-0.3c-0.1-0.1-0.2,0-0.2,0
		s-0.1,0.2-0.1,0.2c0,0.1,0,0.3,0,0.4c0,0.1-0.4,0.9-0.4,1.5c0,0.6,0.1,7.4,0.1,8.5c0,1.1,0,1.1,0,1.1s0.4,2.8,0.4,3.2
		s0.2,0.4,0.2,0.8c0,0.4,0.1,2.4,0.1,3.4c0,1,0.3,1.8,0.3,2.4c0,0.5,0.2,0.8,0.2,1.6c0,0.9-0.1,1.4,0.3,1.7c0.1,0.1,0.4,0.1,0.5,0.2
		c0.1,0.1,0.1,0,0.1,0c0,0.1,0.2,0.4,0.3,0.2c0,0,0.2,0.2,0.2,0.2c0.1,0,0.1-0.1,0.3-0.1c0.1,0.1,0.1,0.2,0.2,0.2
		c0.2,0,0,0.5,0.5,0.1c0.4-0.3,0.4-0.1,0.4-0.1c0.1,0,0.3-0.1,0.4,0c0,0,0.1,0.1,0.2,0.3c0,0,0.3-0.1,0.3,0c0,0,0.1,0.1,0.2,0.1
		c0.5-0.2,0.5,0.4,0.5-0.3c0.1-1,0.1-0.3,0.3-0.9c0.1-0.6,0.1-0.8,0.2-0.5c0.2,0.5,0.3,0.5,0.3,0.5s0.1,0.1,0.2-0.8
		c0.1-0.4,0.1-0.3-0.1-2.7c-0.2-2.4-0.1-3.2-0.1-3.2l-0.2-3.4c0,0-0.1-0.3,0.4-0.3c0.5,0,2.2,0,2.6-0.2c0.4-0.2,0.1-0.1,0.1-0.2
		c0-0.1-0.1-0.1,0.1-0.2c0.2-0.1,0.2,0,0.3-0.1c0.1-0.1,0.5,0,0.7-0.1c0.3,0,0.6-0.2,0.9-0.2c0.5-0.1,1-0.2,1.5-0.3
		c0.3,0,0.4,0,0.8,0c0.1,0,0.1,0,0.2-0.1c0.1-0.1,0.3-0.2,0.2-0.3C23.7,160.6,23.1,160.6,23.2,160.4z"/>
	<path d="M31.1,164.4c0-0.7-0.3-3.1-0.2-5c0.1-1.9,0-2.9,0-2.9s-0.4-5-0.4-6.2c0-1.2,0.1-1.1-0.2-1.6c-0.3-0.5-0.1-0.5-0.3-0.7
		c-0.3-0.4,0-0.1-0.4-0.2c-0.4,0-0.4-1-0.5-0.8c-0.1,0.1-0.2-0.2-0.3-0.2c-0.2,0-0.1-0.2-0.2,0c-0.1,0.1,0,0.1-0.6,0.4
		c-0.1,0.1-0.4,0.1-0.5,0.3c-0.1,0.2-0.5-0.1-0.8,0.2c0,0-0.3,0.5-0.8,0.3c0,0-0.3-0.1-0.5,0c-0.6,0.2-0.3-0.1-0.5,0.1
		c-0.2,0.1-0.5,0.4-0.6,0.7c-0.1,0.4-0.1,0.8-0.1,1c0,0.2,0,0.3,0,0.4c0,0.1,0.1,0.2,0,0.2c-0.1,0-0.1,0.3-0.1,0.5
		c0,0.2,0.2,0.5,0.1,0.7c0,0.2-0.1,1,0,1.1c0,0.1,0.1,0.6,0.1,0.7c0,0.1,0.1,0,0,0.5c-0.1,0.5,0.1,1.8,0.1,2.4c0,0.6,0.3,1,0.2,1.5
		c-0.1,0.4-0.1,2.4,0.1,3.8c0.2,1.4-0.2,0.4,0.2,2.8c0.4,2.4,0.9,4,0.8,5c0,1-0.2,1.2,0,1.7c0.2,0.5,0.1,0.5,0.1,0.6
		c0.1,0.1,0.1,0.1,0.1,0.2c0.1,0.5,0.4,0.6,0.4,0.5c0,0,0-0.1,0.1-0.2c0.1-0.1,0.1,0.2,0.1,0.3c0,0.1,0.3,0.7,0.3,0.8
		c0,0.1,0.3,0.1,0.4,0.1c0.1,0,0-0.3,0.2,0c0.1,0.2,0.1,0.5,0.3,0.5c0.2,0,0.3-0.3,0.3-0.2c0,0.1,0.1,0.1,0.1,0.1
		c0.4,0.5,0.4,0.9,0.4,0.5c0-0.3,0.2-0.2,0.3-0.2c0.2,0,0.3-0.2,0.3-0.2c0-0.1,0.3-0.5,0.4-0.4c0.1,0.1,0.2,0.2,0.2,0.1
		c0-0.1,0.1-0.3,0.1-0.4c0-0.1-0.1-0.2,0-0.3c0.1-0.1,0.2,0,0.2,0.1c0,0.1,0.1,0.3,0.3-0.1c0-0.1,0.3-0.6,0.3-0.9
		c0-0.3-0.1-1.4,0-1.4c0,0,0.2,0.5,0.2-0.1c0-0.4,0.2-1.8,0.2-2.1c-0.1-0.3,0.1-1.2,0-1.3c-0.1-0.1,0-0.2,0-0.3
		C31.3,166.5,31.1,165,31.1,164.4z"/>
	<path d="M54.6,71.8c0.1-0.3,0.1-0.9,0.2-1.3c0.2-0.8-0.2-0.3-0.2-0.9c0.1-0.8-0.1-2.1,0-2.4c0.3-1-0.4-1.2-0.4-1.2S54.2,66,54,65.9
		c-0.2-0.1,0.1-0.3-0.5-0.4c-0.5-0.1-2.7-0.2-3.1-0.1c-0.5,0.1,0.1,0.1-1.5,0.1c-0.3,0-0.6,0.2-1,0.2l0-30.2c0,0,0-0.2,0-0.5
		c0-0.5,0-1.2-0.2-2.1c-0.1-0.5-0.3-7-0.5-7.5C47,25,46.6,25.4,46.5,25c-0.4-1.6-0.9-1.3-1.5-1.6c-0.5-0.2-0.9,0-1.3-0.2
		c-0.9-0.4-0.9-1-1.5-1.1c-0.2,0-0.9,0-1.2-0.4c-0.1-0.2-0.7,0.7-1.1,0.9c-0.2,0.1-0.2,0.4-0.5,0.6c-0.3,0.2-0.5-0.1-0.7,0.1
		c-0.4,0.3-0.8,0-1.1,0.4c-0.3,0.5-0.5,2.2-0.7,2.7c-0.3,0.9-0.4,9.8-0.4,10.8c0,0.2,0,0.6,0,1.2c0.1,4.8,0.1,12.2,0.1,12.2
		s-0.4,12.6,0.3,16c0.2,0.9,0.3,2,0.4,3.1c0,0.2,0,0.5,0.1,0.7c0,0.3,1.3,12.9,1.3,13.4c0,0.1-0.1,3.4,0,4.1c0,0.1,0.2,0.2,0.2,0.3
		c0.2,1.2,0.4,2.8,0.7,4.4c0.7,3.6,0.5-0.4,0.7,0.8c0.2,1.3,0.4,4.6,0.5,4.9c0.1,0.2,0.1,0.5,0.2,0.8c0.1,0.2,0.2,0.2,0.3,0.4
		c0.1,0.2,0.2,0.4,0.3,0.6c0,0.1,0,0.2,0,0.2c0.1,0.1,0.2,4.1,0.2,4.2c0.1,0.2,0.2,0.3,0.2,0.5c0.1,0.2,0.1,0.7,0.2,0.9
		c0.2,0.6,0.6-0.8,0.7-0.4c0.1,0.5-0.1,2.8,0.2,3.3c0.2,0.3,0.2,0.6,0.3,0.8c0.1,0.1,0.3,0.5,0.4,0.6c0.1,0.3,0,0.3,0.3,0.3
		c0.2,0,0.2-1.8,0.2-1.9c0.1-0.2,0.1-0.3,0.2-0.4c0.1-0.1,0-2.9,0.1-3.2c0.1-0.2,0.2,0,0.2-0.3c0-0.1,0.1-1.7,0.1-1.9
		c0-0.3,0.2,0.1,0.3-0.2c0.1-0.8,0.1-1.2,0.3-1.8c0.1-0.3,0-8,0.1-8.5c0.2-1.4,0.7-0.2,0.7-1.1c0-0.6,0.1-1.8,0.3-3.3
		c0.1-0.6,0.2-1.3,0.2-2c0.3-2.6,0.7-5.2,0.8-7l0-4.2c0.2-0.5,2.2-0.5,2.9-0.6c0.7-0.1,1.2-0.3,2,0c0.4,0.1,0.5-0.4,0.7-0.4
		c0.2-0.1,0.3,0.3,0.5-0.2c0.2-0.6-0.3-0.9-0.2-1.3C53.8,72.1,54.5,72.3,54.6,71.8z"/>
	<path d="M110.9,68.5c-0.5-0.2-2.1-0.9-2.7-1c-0.9-0.2-1.9-0.2-2.8-0.3c-0.9-0.1-1.8-0.1-2.6-0.3c-0.9-0.2-1.9-0.2-2.9-0.1
		c-0.9,0.1-0.3,0-1,0.3c-0.2,0.1-1.6,0.3-1.8,0.4c-0.2,0.1,0,0.3-0.1,0.4c-0.2,0.1-1.2,0.8-1.2,0.8l0.6-0.1c0,0-0.1,0.2-0.2,0.3
		c-0.1,0.1-0.3,0.3-0.3,0.4c0,0.1,0.4,0.4,0.4,0.4s-0.4,0.3-0.4,0.5c0,0.2,0,0.4,0,0.6c0,0.1,0.2,0.1,0.3,0.1
		c-0.1,0-0.4,0.1-0.1,0.2c0.5,0.2,0,0,0,1.6c0,0.3,1.7,0.2,1.7,0.2s-1.3,0.1-1.6,0.3c-0.3,0.3,0.1,0.3,0.2,0.5
		c0.2,0.2,1.2,0.2,1.5,0.3c0.3,0.1-0.1,0.4,0.5,0.3c0.4,0,0.6,0,0.9,0.1c0.3,0.1,0.5,0.3,0.6,0.6c0.1,0.3,0.6-0.2,0.5,0.3
		c-0.1,0.2-0.7,1.3-0.7,1.5c-0.1,0.3-0.2,0.7-0.4,1c-0.1,0.3-0.3,0.7-0.4,1.2c-1.3,3.7-4,12.9-4.1,13.3c-0.1,0.4-2.6,7.2-4.4,11.8
		c-0.5,1.2-0.9,2.2-1.3,2.9c-0.3,0.6,0.2,0,0,0.6c-0.5,1.2-0.5,1.3-0.8,2.4c-0.4,1.2,0,1.2-0.3,2.1c0,0.1-0.2,0.6-0.5,1.2
		c-0.2,0.5-0.3,1-0.5,1.5c-0.3,0.6-0.6,1.1-0.7,1.3c-0.3,0.7-0.1,0.5-0.3,1.1c-0.2,0.7,0.2-0.1,0,0.6c-0.1,0.4-0.9,2.6-1,3
		c-0.1,0.3-0.7,1.1-0.9,2c0,0.2,0.3-0.3,0.6-0.3c0.5-0.1,2.3-3,2.8-3.2c0.2-0.1,0.1,0.3,0.2,0.3c0.1-0.1,0.4,0,0.7-0.4
		c0.1-0.2,0.3-0.5,0.5-0.8c0.2-0.4,0.5-0.9,0.8-1.4c0.5-0.9,0,0,0.8-1.3c0.3-0.6,1-2.3,1.3-2.9c0.3-0.5,0.2,0.1,0.5-0.5
		c0.3-0.6,0.6-1.1,1-1.7c0.3-0.5,0.6-1,0.8-1.5c0.6-1,1.1-2,1.7-3c6.8-12.2,9.6-18.9,10.3-20.3c3-6.5,5.5-9,5.8-13.9
		c0-0.7,0.6-1.7,0.4-2.2c-0.1-0.3-0.5-0.7-0.7-1C110.9,68.5,111.4,68.8,110.9,68.5z"/>
	<path d="M115.6,148.4l-0.1-1.1c0,0,0-0.2-0.1-0.2c-0.2-0.1-0.1-0.2-0.3-0.2c0,0-0.4,0.1-0.5,0c0-0.1-0.2,0-0.3,0
		c-0.1,0-0.3,0.1-0.3,0c-0.1-0.4-0.1-0.6-0.2-0.4c-0.2,0.4-0.3,0.2-0.4,0.3c0,0.1-0.3,0.6-0.5,0.6c-0.2,0-0.6,0.3-0.7,0.3
		c-0.1,0-0.4,0.1-0.4,0.2c-0.1,0.2-0.1,0.5-0.1,0.4c0,0,0-0.4-0.1-0.4c-0.2-0.1-0.3-0.4-0.4-0.3c0,0.1,0,0.2-0.5,0.3
		c-0.1,0-0.1-0.1-0.2-0.1c-0.1,0-0.3,0-0.4,0c-0.5,0-0.1,0.2-0.5,0.2c-0.1,0-0.2-0.1-0.2,0.1c0,0.2-0.1,0.7-0.2,0.9
		c0,0.2-0.1,0.5,0,0.7c0,0.2,0.1,0.8,0.1,1.1c0,0.4,0,0.7,0,0.8s0,6.2,0,6.2l0.4,4.9v4l0.3,2c0,0,0.2,1.1,0.2,1.3
		c0,0.4,0.3-0.5,0.4,0c0,0.1,0.2,0.2,0.3,0.2c0.1,0,0.2,2.1,0.2,2.2c0,0,0.2,0.9,0.2,0.9c0,0.1,0.1,0,0.1,0c0,0,0.1,0,0.1,0
		c0,0.2,0.1,0.7,0.1,1c0,0.2,0.1,0.3,0.3,0.3c0.1,0,0.4,0.1,0.4,0.4c0.1,0.4,0.2,0,0.2,0s0.1-0.3,0.3,0c0.1,0.2,0.7,0.6,0.7,0.3
		c0-0.3,0.3-0.1,0.3-0.6c0-0.3,0-0.1,0.1-0.3c0.1-0.1,0.1-0.1,0.2,0.1c0.1,0.2,0.1,0.3,0.3-0.2c0.2-0.5,0.1-0.3,0.3-0.3
		c0.1,0,0.3-0.4,0.3-0.7c0-0.3,0.1-1.1,0.2-1.2c0.1-0.2,0.4-3.2,0.4-3.2v-5.4l-0.4-7.5l0.3-3.4c0,0-0.2-0.7,0-1.9
		C115.8,149.4,115.4,149.5,115.6,148.4z"/>
	<path d="M85.7,27.5c-0.1,0.5-0.2,1.2-0.4,2c-0.2,0.8-0.3,1.7-0.5,2.7C83.5,39.1,81.4,50,81.4,50s-2.8,20.1-4,29
		c-0.2,1.5-0.3,2.6-0.4,3.3c-0.1,0.8-0.2,1.7-0.2,2.7c0,1.1-0.1,2.4-0.1,3.7c0,2.6,0,2.2,0,4.4c0,2.1,0.3,1.8,0.3,1.8s0.2,0,0.2,0.9
		c0,0.5,0,3.2,0,4c0,0.1,0,0.1,0,0.1c0,0,0,0,0,0.1c0,0.3,0.2,2.4,0.3,2.8c0,0.2,0.2,0.1,0.3,0.3c0.1,0.2,0,2.3,0,2.5
		c0.1,0.2,0.2,1.4,0.3,1.6c0.1,0.1,0.2,0.4,0.2,0.5c0.1,0.1,0.2-0.1,0.3-0.1c0.2,0,0.3,1.9,0.4,1.7c0.2-0.3,0.5-1.6,0.7-1.8
		c0.1-0.1,0.2-0.3,0.3-0.7c0.1-0.3,0.3-2.9,0.5-3.6c0.2-0.7,0.4,0.3,0.5-0.6c0.3-1.3,0.6-1.1,0.9-2.3c0.3-1.2,0.5-2.2,0.5-2.7
		c0-0.3,0.1-0.9,0.3-1.6c0.4-2,1.1-5.1,1.8-8.3c0.2-0.7,0.3-1.4,0.5-2c0.3-1.4,0.6-2.8,0.9-3.9C87,77,88.3,68.1,89,63.8
		c1.1-6.6,3.1-16.3,3.1-16.3s-0.1-0.9,0.5-2.7c0.1-0.4,0.9-4.1,1-4.4c0.2-0.4,0.5-0.2,0.7-0.4c0.1-0.2,0.2,0.3,0.3,0.4
		c0.1,0,0.4-0.1,0.5,0.1c0.8,1,2.5,3.3,4.4,4.9c0.5,0.4,0.6,0,1.1,0.3c0.6,0.4,0.9,0.7,1.5,0.8c0.4,0,1.4,0.8,1.7,0.6
		c0.1-0.1,0.7-0.5,0.7-0.5s0.4,0,0.7-0.1c0.3-0.1,0.7,0,1-0.1c1.2-0.5,0.9-0.8,0.9-0.8s0.2,0.3,0.5,0.3c0.1,0,0.1,0,0.3-0.1
		c0.1,0,0-0.2,0.1-0.2c0.1,0,1.3-0.4,1.4-0.4c0.1,0-0.7-1.1-0.7-1.1s0.9,1.1,1.1,1c0.4-0.2-0.1-0.8-0.1-0.8s0.6,0.8,0.9,0.3
		c0.4-0.8-0.3-2.2-0.3-2.7c0.1-0.3,0-0.7-0.1-1.1c-0.1-0.5,0.5-0.1,0-0.7c-0.2-0.2-0.4-0.5-0.6-0.7c-0.3-0.4-0.7-0.8-1.1-1.2
		c-3.2-3.6-8.4-9.7-10.4-13.3c-0.9-1.5-1.8-2.3-2.6-2.7c-0.5-0.2-1-0.3-1.4-0.3c-0.8,0-1.5,0-1.5,0s-0.2,0.4-0.7,0.6
		c-0.4,0.2-0.9,0.7-1.4,1c-0.9,0.5-1.5,0.2-2.8,1.5c-0.4,0.4-0.8,0.7-1.1,1c-0.3,0.4-0.1,0.4-0.2,0.8C86.3,26.7,85.8,27.2,85.7,27.5
		z"/>
	<path d="M74.8,0C35-1.3,1.4,30,0.1,69.9c-0.8,22.6,7.3,39.7,19.2,51.4c1.6,1.6-0.3-0.5,1.4,0.9c2.3,1.9,3.6,3.4,6.1,5
		c1.3,0.8,3.2,2.4,5.4,3.3c2.3,0.9,5.3,2.6,7.6,3.4c2.6,0.9,5.3,1.6,6.6,2c0.3,0.1,0.6,0,0.8,0c1.4,0.4,2,0.6,3,0.8
		c1,0.2,4.8,1.5,5.4,1.6c0.7,0.1,1.9,0.6,2.4,0.5c0.2,0,1.4,0.2,1.5,0.2c0.2-0.1-0.5-0.1-0.4-0.3c0.2-0.2,1.7,0.3,1.7,0.1
		c0,0-0.7-0.2-1-0.3c-0.4-0.1-0.7-0.4-1.3-0.6c-0.9-0.3-1.9-0.5-2.7-0.8c-0.3-0.1-0.6-0.4-0.7-0.5c-0.2-0.1-0.2-0.2-0.1-0.4
		c0.1-0.1-0.3-0.3-0.9-0.5c-0.8-0.3-2.2-0.8-3.5-1.2c-0.7-0.2-1.4-0.2-2.1-0.5c-0.2-0.1-0.5-0.2-0.7-0.3c-0.4-0.2-0.9-0.2-1.3-0.4
		c-0.3-0.2-0.4-0.5-0.6-0.7c-0.2-0.1-1.8-0.3-2.9-1c-0.3-0.2-0.3-0.4-0.5-0.6c-1-0.6-2.3-1.5-3.1-2c-0.8-0.5-5.2-3.5-5.4-3.6
		c-2.2-1.4,0.1-0.5-2.1-2.3c-1.9-1.6-3.7-3.2-5.4-5c-11.2-11.6-19.6-28-19-48c1.2-35.7,31.3-63.8,67-62.6
		c35.7,1.2,63.8,31.3,62.6,67c-0.8,22.9-11.2,38.9-24.9,49.9c-2.2,1.7-4.4,3.3-6.7,4.8c-2.8,1.9-2.3,1.7-5.3,3.2
		c-1,0.5,0.5,0.4-3.9,2.8c-0.6,0.4-2.5,1-3.2,1.2c-0.9,0.3-1,0.3-1.9,0.5c-1,0.2-1.2,0.6-2,0.7c-0.7,0.1-1,0.3-1.6,0.4
		c-1,0.1-2.7,0.4-2.9,0.4c-0.9,0.1-0.1,0.1-0.7,0.2c-0.5,0.1-3,0.1-3.3,0.5c-0.2,0.2-0.9,0.2-1,0.5c-0.1,0.2-0.6,0.3-1.2,0.4
		c-0.6,0.1-2-0.1-2.7-0.1c-0.4,0-0.8,0.2-1.2,0.2c-0.3,0-0.9,0.1-1.1,0.1c-0.5,0.1-1.7,0.1-1.7,0.3c0,0,1.9,0,3,0.2
		c0.9,0.1,0-0.1,1.3-0.1c1.8,0,2.3,0.5,5.1,0.3c1.8-0.1,3.3-0.5,4.6-0.6c0.6-0.1,0.8,0.2,1.4,0.1c0.5-0.1,2.1,0.3,3.4-0.2
		c0.5-0.2,1.9-0.1,2.4-0.2c3.7-0.9,5.8-0.5,11.1-3.9c5.4-3.5,3.7-1.4,6.6-3.2c2.5-1.6,5.1-3.3,7.5-5.3
		c13.5-10.8,25.6-28.1,26.4-52.9C146.1,35,114.7,1.4,74.8,0z"/>
	<path d="M130.2,159.1c-2.6-1.2-5.2-2-6.4-3.1c-0.8-0.7-0.7-0.9-0.7-1.5c-0.1-2.1,2-2.7,3.8-2.6c0.8,0.1,1.5,0.2,2.2,0.4
		c0.3,0.1,0.7,0.1,1,0.1c0.1,0,0.2,0,0.4,0c0.1,0,0.3,0.1,0.4,0.1c0.1,0,0.3-0.2,0.4-0.2c0,0,0.8,0.1,0.7,0c-0.7-0.4,0-0.6-0.4-0.8
		c-0.2-0.1,0.3,0.1,0.3-0.2c0,0-0.2-0.4-0.1-0.6c0.1-0.2,0-0.6-0.2-0.7c-0.2-0.2,0-0.3,0.1-0.3c0.1,0-0.6-0.5-0.7-0.9
		c0-0.1-0.2-0.3-0.5-0.4c-1-0.3-0.8-0.5-0.8-0.5s0.1-0.2-0.6-0.3c-0.1,0-1.1-0.2-1.2-0.3c-1.7-0.2-3.7-0.1-5.4,0.4
		c-2.9,1-4.2,2.9-4.8,4.5c-0.5,1.2-0.5,3.2-0.2,4.2c0.4,1.4,1,3.7,5,5c5.5,1.7,4.9,2.2,4.9,2.2s2,0.9,2,3.3c0,2-1.6,2.8-2.2,3.1
		c-1.5,0.6-4.1,0.5-6.4-0.9c0,0-1.3-0.8-1.6-1.1c-0.2-0.2-0.2-0.1-0.1,0.1c0.1,0.1,0,0.2,0,0.2s-0.2,0-0.2,0.1s-0.1,0.1-0.2,0.1
		c0,0-0.2,0-0.1,0s-0.1,0.1-0.1,0.2c0,0.1,0,0.2,0,0.2c0,0.1-0.3,0.1-0.4,0.2c0,0.1-0.1,0.2-0.2,0.2c-0.1,0.1,0,0.2,0,0.3
		c-0.1,0.2-0.4-0.2-0.4,0c0,0.1,0,0.2,0,0.3c0,0.1,0.1,0.2,0.1,0.3c0.1,0.3,0,0.3,0.2,0.6c0.1,0.1,0.6,0.6,0.7,0.8
		c0.1,0.2-0.1,0-0.1,0.2c0,0.1,0,0.1,0.1,0.2c0.1,0.1,0.1,0.2,0.1,0.3c0,0.1,0.2,0.1,0.2,0.2c0.2,0.2-0.2,0.1,0.2,0.4
		c0.1,0.1-0.5-0.1,0.4,0.5c0.3,0.2,0.1,0.3,0.5,0.5c0.3,0.1,3.6,1.3,6.2,0.9c4.7-0.7,5.2-1.2,6.5-2.4c0.3-0.3,0.7-0.5,0.9-0.8
		c1.1-1.8,1.6-3.3,1.6-4.7C135.1,163.9,134.2,160.9,130.2,159.1z"/>
</g>
</svg>
